<?xml version="1.0" standalone="no"?>
<!DOCTYPE svg PUBLIC "-//W3C//DTD SVG 20010904//EN"
 "http://www.w3.org/TR/2001/REC-SVG-20010904/DTD/svg10.dtd">
<svg version="1.0" xmlns="http://www.w3.org/2000/svg"
 width="400.000000pt" height="400.000000pt" viewBox="0 0 400.000000 400.000000"
 preserveAspectRatio="xMidYMid meet">

<g transform="translate(0.000000,400.000000) scale(0.100000,-0.100000)"
fill="#000000" stroke="none">
<path d="M1122 3733 c-30 -17 -96 -89 -105 -116 -2 -8 -55 -11 -173 -12 -133
-1 -194 -6 -289 -24 -213 -41 -320 -82 -445 -169 -119 -83 -110 -63 -110 -246
l0 -161 24 42 c31 53 122 175 173 229 21 22 67 60 103 84 36 23 73 50 83 59
18 15 18 15 0 22 -36 13 182 62 352 80 107 11 131 10 220 -6 135 -24 250 -85
341 -181 l32 -32 -52 -7 c-28 -3 -76 -16 -106 -27 -55 -22 -170 -93 -170 -106
0 -4 -14 -23 -32 -42 -39 -44 -74 -119 -89 -190 -16 -78 -7 -215 19 -274 l21
-47 -22 7 c-12 3 -29 13 -38 20 -20 18 -91 18 -132 0 -43 -19 -121 -103 -136
-145 -6 -19 -11 -56 -11 -83 0 -62 31 -98 84 -98 53 0 79 -14 101 -55 19 -36
21 -37 65 -32 37 4 51 12 83 47 38 44 44 70 27 114 -5 14 -6 26 -1 26 4 0 21
-30 36 -67 34 -82 52 -103 130 -156 33 -22 61 -41 63 -42 1 -1 11 -52 22 -114
10 -61 21 -115 24 -120 3 -5 -23 -12 -58 -16 -65 -7 -99 -26 -110 -63 -6 -18
-10 -19 -69 -7 -34 7 -93 23 -132 35 -38 13 -88 23 -110 24 -37 1 -40 -1 -43
-29 -2 -22 5 -38 26 -60 67 -72 146 -191 184 -277 40 -90 41 -98 45 -218 l5
-125 -35 -65 c-19 -35 -41 -68 -48 -72 -8 -3 -34 -15 -59 -26 -49 -22 -74 -45
-84 -79 -4 -13 -15 -23 -24 -23 -50 0 -184 127 -306 291 -42 57 -83 111 -90
119 -33 42 -91 146 -109 197 -28 82 -35 229 -12 276 9 20 58 73 108 119 154
139 188 179 226 258 32 67 36 85 39 174 3 82 0 108 -18 159 -44 121 -113 203
-225 267 -66 37 -196 64 -261 53 l-49 -8 -3 -44 -3 -43 59 7 c63 7 152 -10
218 -41 56 -27 119 -89 151 -151 84 -156 63 -307 -60 -441 -53 -57 -106 -87
-191 -108 -54 -13 -79 -15 -122 -7 l-54 10 0 -313 0 -313 31 -58 c116 -215
155 -270 239 -336 52 -41 156 -97 179 -97 6 0 11 -21 11 -48 0 -70 26 -147 57
-171 14 -12 41 -21 60 -21 60 0 104 34 172 133 24 36 37 47 49 42 36 -14 131
-25 215 -25 87 0 89 0 142 -40 30 -22 58 -40 64 -40 5 0 11 -3 13 -8 12 -28
317 -132 388 -132 24 0 24 2 0 -51 -11 -24 -20 -65 -20 -91 0 -40 4 -50 31
-72 75 -63 198 -19 419 149 l55 42 130 7 c125 6 163 10 305 35 97 18 250 74
350 129 92 51 224 161 292 245 l24 29 164 -55 c349 -116 399 -130 510 -146 61
-8 79 -15 98 -36 l22 -26 0 95 0 95 -47 6 c-158 19 -288 65 -409 146 -86 57
-133 112 -157 182 -15 46 -16 56 -3 97 48 151 70 351 63 560 -9 293 18 364
173 440 36 17 79 42 96 55 l32 24 6 -25 c4 -13 19 -32 35 -42 l29 -18 -24 -21
c-27 -24 -31 -64 -10 -86 18 -17 75 -27 139 -23 62 3 76 23 77 102 0 56 -2 62
-25 72 -14 7 -35 12 -46 12 -17 0 -20 6 -17 33 2 22 8 31 17 29 8 -2 27 -6 43
-9 l28 -5 0 70 c0 70 0 70 -30 77 -23 5 -42 -1 -84 -24 l-54 -31 25 49 c89
179 24 428 -142 546 -36 26 -65 50 -65 54 0 4 13 28 30 54 43 69 140 124 260
149 l60 12 0 78 0 78 -68 0 c-38 0 -95 -5 -128 -11 -56 -10 -60 -10 -74 11 -8
12 -38 46 -66 76 -47 50 -54 54 -95 54 -37 0 -53 -6 -86 -35 -58 -49 -77 -95
-69 -163 4 -30 13 -64 21 -75 13 -19 9 -26 -65 -104 -44 -45 -80 -87 -80 -93
0 -5 -12 -13 -27 -16 -30 -8 -95 -47 -128 -77 -45 -42 -60 -40 -173 16 -220
108 -459 167 -684 167 l-88 0 -19 38 c-40 78 -122 130 -186 118 -69 -13 -125
-94 -125 -180 0 -30 -3 -32 -108 -73 l-107 -42 -59 39 c-32 22 -76 47 -96 56
-21 9 -45 29 -53 44 -9 15 -43 53 -75 85 l-59 57 19 39 c40 83 8 193 -68 236
-47 27 -88 29 -132 6z m105 -99 c22 -22 25 -32 20 -70 -2 -25 -7 -48 -11 -51
-5 -5 -72 26 -94 43 -6 4 43 104 51 104 4 0 20 -12 34 -26z m2397 -76 l36 -43
-31 -8 c-18 -5 -35 -5 -40 0 -13 13 -23 93 -12 93 6 0 27 -19 47 -42z m-1557
-261 c-43 -14 -75 31 -44 62 10 10 18 6 41 -20 l29 -33 -26 -9z m386 -93 c133
-17 190 -30 282 -64 33 -12 78 -27 100 -33 22 -6 62 -23 88 -39 26 -15 52 -28
57 -28 16 0 11 -16 -10 -35 -14 -13 -20 -29 -18 -49 3 -27 22 -45 76 -72 7 -3
12 -25 12 -49 0 -24 5 -47 11 -50 6 -4 7 -19 4 -36 -4 -16 -3 -38 0 -50 6 -17
13 -20 43 -16 21 2 52 9 70 15 33 11 33 11 54 -36 55 -124 78 -221 120 -527
17 -123 17 -492 0 -575 -28 -141 -73 -278 -115 -355 -6 -11 -22 -41 -35 -67
-14 -27 -29 -48 -33 -48 -5 0 -9 -9 -9 -19 0 -11 -3 -21 -7 -23 -5 -1 -29 -28
-55 -59 -50 -59 -180 -159 -263 -201 -218 -112 -504 -164 -850 -157 -193 4
-187 3 -276 92 -94 93 -119 136 -119 200 0 32 7 46 34 73 37 36 116 64 181 64
67 0 205 19 265 37 41 12 67 29 102 65 29 30 63 54 84 60 33 9 38 7 63 -20 33
-38 128 -102 150 -102 9 0 21 -4 26 -8 6 -5 43 -15 84 -22 83 -15 151 -4 181
30 10 11 29 20 43 20 41 0 60 46 31 74 -13 13 -43 16 -173 16 -172 0 -181 3
-181 57 0 29 3 33 38 38 20 3 61 10 91 15 30 6 69 10 88 10 30 0 33 3 33 29 0
47 -19 55 -113 46 -105 -9 -176 -27 -248 -65 -32 -16 -60 -26 -63 -21 -3 5
-23 12 -43 15 -21 4 -54 12 -73 18 -60 17 -93 25 -157 39 -62 13 -84 29 -40
29 28 0 67 26 67 46 0 8 6 14 14 14 24 0 29 20 10 36 -36 28 -93 47 -194 64
-30 5 -84 14 -119 20 -75 13 -141 45 -197 97 -99 92 -134 181 -134 338 0 95 2
104 22 117 22 14 23 14 35 -21 7 -20 13 -55 13 -77 0 -46 8 -55 63 -75 24 -9
41 -23 50 -42 11 -27 15 -28 62 -24 107 9 155 45 155 115 0 31 1 32 43 32 25
0 52 8 66 19 l25 19 27 -37 c78 -109 203 -156 349 -131 36 6 90 15 120 19 71
11 108 21 139 37 14 8 32 14 39 14 6 0 12 5 12 10 0 6 6 10 13 10 17 0 108 96
142 150 50 79 65 135 65 242 0 74 -5 110 -21 153 -31 84 -40 98 -105 168 -56
60 -102 89 -204 128 -40 15 -232 17 -252 2 -7 -5 -32 -15 -55 -23 -24 -7 -43
-16 -43 -21 0 -4 -11 -10 -24 -13 -36 -9 -216 -197 -248 -258 -24 -46 -28 -65
-28 -140 0 -49 -3 -88 -8 -88 -4 0 -23 13 -42 29 -66 54 -182 52 -235 -3 -16
-17 -40 -39 -51 -49 l-21 -18 8 43 c26 133 41 287 33 358 -19 183 -2 247 87
328 61 56 128 102 149 102 8 0 26 9 40 20 14 11 29 20 33 20 4 0 20 9 35 19
19 14 58 23 127 31 55 7 102 14 104 16 10 10 193 3 304 -12z m-978 -29 c27
-14 59 -32 70 -41 l20 -16 -20 -11 c-11 -7 -55 -47 -98 -90 l-78 -78 -72 -3
c-46 -2 -93 -11 -129 -26 -68 -27 -149 -100 -172 -153 -8 -21 -20 -36 -26 -32
-5 3 -10 45 -10 95 0 71 5 103 26 159 32 87 71 129 175 188 85 49 225 52 314
8z m2042 -39 c125 -33 206 -98 257 -206 27 -58 31 -75 31 -160 0 -86 -3 -101
-30 -155 -35 -69 -104 -141 -172 -180 -38 -21 -66 -28 -129 -32 l-82 -6 -7 44
c-7 46 -19 88 -42 153 -14 38 -10 63 6 37 5 -7 28 -15 53 -18 37 -4 49 -1 76
22 23 19 32 35 32 56 0 16 -4 29 -10 29 -5 0 -10 -4 -10 -10 0 -15 -37 -12
-43 3 -8 22 9 40 33 34 21 -5 21 -5 4 14 -49 55 -142 35 -160 -35 -7 -29 -19
-34 -28 -10 -10 27 -7 52 8 57 8 3 29 27 47 53 28 41 33 56 33 109 -1 69 -27
131 -71 163 l-27 20 49 15 c64 19 117 20 182 3z m-252 -121 c31 -30 35 -111 8
-143 l-18 -21 -50 25 c-27 13 -61 31 -74 38 l-23 14 46 44 c25 25 46 50 46 56
0 21 40 13 65 -13z m-1882 -176 c20 -5 50 -23 66 -38 24 -24 30 -40 36 -96 12
-112 -9 -302 -47 -423 -23 -73 -31 -77 -146 -70 -102 6 -150 33 -215 119 -28
37 -39 75 -15 51 26 -26 90 -7 125 38 7 8 13 30 13 48 0 79 -109 124 -165 67
-25 -24 -25 -24 -25 -2 0 70 63 205 115 249 20 17 85 52 115 61 27 9 104 7
143 -4z m1189 -88 c79 -40 126 -82 162 -145 81 -140 70 -298 -28 -426 -78
-102 -226 -161 -347 -140 -208 37 -359 241 -320 432 29 143 113 241 257 299
77 31 193 22 276 -20z m-1659 -219 c9 -8 17 -26 17 -39 0 -19 -5 -23 -31 -23
-40 0 -104 -19 -148 -43 -40 -22 -50 -15 -67 43 l-12 40 68 0 c54 0 74 5 101
23 35 25 42 25 72 -1z m215 -44 c-2 -13 -10 -23 -18 -23 -8 0 -16 10 -18 23
-3 17 2 22 18 22 16 0 21 -5 18 -22z m-247 -120 c6 -24 4 -27 -28 -33 -40 -7
-38 -8 -47 27 -4 20 -2 28 11 31 36 10 57 2 64 -25z m3068 -44 c2 -2 1 -15 -3
-29 -7 -29 -45 -35 -65 -11 -21 25 4 58 37 50 15 -4 29 -8 31 -10z m-2067
-106 c21 -25 28 -42 24 -56 -9 -28 -25 -32 -77 -19 -55 13 -165 15 -203 3
l-29 -9 5 47 c3 26 8 50 12 53 3 3 26 0 50 -7 35 -10 55 -10 95 0 28 7 54 16
57 22 10 17 36 4 66 -34z m-129 -135 c3 -5 2 -23 0 -40 -5 -31 -8 -33 -44 -33
-38 0 -39 1 -39 34 0 19 6 37 13 39 19 8 65 8 70 0z m-483 -303 c10 -18 8 -19
-12 -11 -13 5 -39 14 -58 19 l-35 10 47 1 c38 1 49 -3 58 -19z m-345 -30 c74
-23 266 -81 330 -100 39 -12 108 -33 155 -47 47 -13 96 -28 110 -32 16 -5 37
-28 60 -68 37 -63 86 -132 133 -186 38 -44 51 -67 36 -67 -11 0 -168 47 -399
120 -69 22 -147 45 -173 52 -38 10 -62 26 -113 77 -35 36 -64 68 -64 73 0 5
-35 52 -77 105 -61 77 -72 95 -52 89 13 -4 38 -11 54 -16z m960 -420 c98 -16
230 -42 234 -46 7 -7 0 -10 -79 -39 -138 -50 -134 -50 -175 9 -19 28 -43 62
-53 76 -16 23 -16 24 3 16 11 -4 43 -12 70 -16z m-1031 -432 c7 -5 5 -8 -6 -8
-21 0 -32 16 -22 32 6 9 9 8 12 -2 3 -8 10 -18 16 -22z m1096 -353 c0 -5 -16
-16 -120 -85 -72 -49 -79 -35 -15 30 52 52 64 60 97 60 21 0 38 -2 38 -5z"/>
<path d="M2165 2376 c-31 -31 -40 -69 -25 -105 15 -38 47 -53 100 -49 39 3 45
7 63 40 16 32 17 43 8 70 -18 50 -39 68 -83 68 -28 0 -46 -7 -63 -24z m113
-54 c3 -16 -2 -22 -17 -22 -24 0 -35 15 -27 36 9 23 40 13 44 -14z"/>
<path d="M251 2474 c-50 -63 -7 -154 73 -154 54 0 86 35 86 95 0 32 -6 51 -20
65 -23 23 -60 29 -41 6 15 -18 3 -48 -18 -44 -10 2 -16 13 -16 31 1 36 -36 37
-64 1z"/>
<path d="M280 1786 l-75 -11 0 -35 0 -35 165 3 c182 3 223 -5 155 -34 -62 -26
-142 -44 -191 -44 -67 0 -95 -37 -56 -73 10 -10 25 -17 32 -17 7 0 21 -7 31
-16 27 -24 106 -21 158 6 50 25 139 114 147 148 10 36 -14 79 -54 98 -46 22
-203 27 -312 10z"/>
</g>
</svg>
